# Rhino

g object_1
v -0.140493631362915 0.244190588593483 0.1435130834579468
v -0.5753405094146729 -0.04610685259103775 0.2475872486829758
v 0.1527510583400726 -0.1950711160898209 0.1435130834579468
v -0.2820958495140076 -0.485368549823761 0.2475872486829758
vt 0 0
vt 0 1
vt 1 0
vt 1 1
vn 0.1623676121234894 0.1083942502737045 0.9807586073875427
vn 0.1623676121234894 0.1083942502737045 0.9807586073875427
vn 0.1623676121234894 0.1083942502737045 0.9807586073875427
vn 0.1623676121234894 0.1083942502737045 0.9807586073875427
f 4/4/4 3/3/3 1/1/1 2/2/2
g object_2
v -0.1179878786206245 0.2592151165008545 0.1173350885510445
v 0.3178817927837372 0.5501953363418579 0.2086141705513001
v 0.02863447181880474 0.03958425298333168 0.1173350885510445
v 0.4645041525363922 0.3305644690990448 0.2086141705513001
v 0.1752568185329437 -0.1800466030836105 0.1173350885510445
v 0.6111264824867249 0.1109336316585541 0.2086141705513001
vt 0 0
vt 0 1
vt 0.5 0
vt 0.5 1
vt 1 0
vt 1 1
vn -0.142710492014885 -0.09527143836021423 0.9851685762405396
vn -0.142710492014885 -0.09527143836021423 0.9851685762405396
vn -0.142710492014885 -0.09527143836021423 0.9851685762405396
vn -0.142710492014885 -0.09527143836021423 0.9851685762405396
vn -0.142710492014885 -0.09527143836021423 0.9851685762405396
vn -0.142710492014885 -0.09527143836021423 0.9851685762405396
f 8/8/8 6/6/6 5/5/5 7/7/7
f 10/10/10 8/8/8 7/7/7 9/9/9
g object_3
v 0.2468122839927673 0.136815756559372 0.09552008658647537
v 0.5168459415435791 -0.3108964860439301 0.1995942443609238
v -0.2054453641176224 -0.1359594464302063 0.09552008658647537
v 0.06458830833435059 -0.5836716890335083 0.1995942443609238
vt 0 0
vt 0 1
vt 1 0
vt 1 1
vn -0.1008279547095299 0.1671714037656784 0.9807586073875427
vn -0.1008279547095299 0.1671714037656784 0.9807586073875427
vn -0.1008279547095299 0.1671714037656784 0.9807586073875427
vn -0.1008279547095299 0.1671714037656784 0.9807586073875427
f 14/14/14 12/12/12 11/11/11 13/13/13
g object_4
v 0.2328365296125412 0.1599873751401901 0.06934207677841187
v -0.03783226758241653 0.6087526082992554 0.1606211513280869
v 0.006707706488668919 0.0235997699201107 0.06934207677841187
v -0.2639611065387726 0.4723650217056274 0.1606211513280869
v -0.2194211184978485 -0.1127878352999687 0.06934207677841187
v -0.4900899231433868 0.3359774351119995 0.1606211513280869
vt 0 0
vt 0 1
vt 0.5 0
vt 0.5 1
vt 1 0
vt 1 1
vn 0.08862116187810898 -0.1469327062368393 0.9851685762405396
vn 0.08862116187810898 -0.1469327062368393 0.9851685762405396
vn 0.08862116187810898 -0.1469327062368393 0.9851685762405396
vn 0.08862116187810898 -0.1469327062368393 0.9851685762405396
vn 0.08862116187810898 -0.1469327062368393 0.9851685762405396
vn 0.08862116187810898 -0.1469327062368393 0.9851685762405396
f 18/18/18 17/17/17 15/15/15 16/16/16
f 20/20/20 19/19/19 17/17/17 18/18/18
g object_5
v 0.2328365296125412 0.1599873751401901 0.06934207677841187
v -0.03783226758241653 0.6087526082992554 0.1606211513280869
v 0.006707706488668919 0.0235997699201107 0.06934207677841187
v -0.2639611065387726 0.4723650217056274 0.1606211513280869
v -0.2194211184978485 -0.1127878352999687 0.06934207677841187
v -0.4900899231433868 0.3359774351119995 0.1606211513280869
vt 0 0
vt 0 1
vt 0.5 0
vt 0.5 1
vt 1 0
vt 1 1
vn 0.08862116187810898 -0.1469327062368393 0.9851685762405396
vn 0.08862116187810898 -0.1469327062368393 0.9851685762405396
vn 0.08862116187810898 -0.1469327062368393 0.9851685762405396
vn 0.08862116187810898 -0.1469327062368393 0.9851685762405396
vn 0.08862116187810898 -0.1469327062368393 0.9851685762405396
vn 0.08862116187810898 -0.1469327062368393 0.9851685762405396
f 24/24/24 23/23/23 21/21/21 22/22/22
f 26/26/26 25/25/25 23/23/23 24/24/24
g object_6
v 0.2468122839927673 0.136815756559372 0.09552008658647537
v 0.5168459415435791 -0.3108964860439301 0.1995942443609238
v -0.2054453641176224 -0.1359594464302063 0.09552008658647537
v 0.06458830833435059 -0.5836716890335083 0.1995942443609238
vt 0 0
vt 0 1
vt 1 0
vt 1 1
vn -0.1008279547095299 0.1671714037656784 0.9807586073875427
vn -0.1008279547095299 0.1671714037656784 0.9807586073875427
vn -0.1008279547095299 0.1671714037656784 0.9807586073875427
vn -0.1008279547095299 0.1671714037656784 0.9807586073875427
f 30/30/30 28/28/28 27/27/27 29/29/29
g object_7
v 0.316195011138916 0.0009938135044649243 0.02180661633610725
v 0.316195011138916 -0.6188386082649231 0.1103541031479836
v -0.3099302649497986 0.0009938135044649243 0.02180661633610725
v -0.3099302649497986 -0.6188386082649231 0.1103541031479836
vt 0 0
vt 0 1
vt 1 0
vt 1 1
vn 0 0.1414213627576828 0.9899494647979736
vn 0 0.1414213627576828 0.9899494647979736
vn 0 0.1414213627576828 0.9899494647979736
vn 0 0.1414213627576828 0.9899494647979736
f 34/34/34 32/32/32 31/31/31 33/33/33
g object_8
v 0.316195011138916 0.03307360783219338 -0.0004659275873564184
v 0.316195011138916 0.6543638706207275 0.07719535380601883
v -0.3099302649497986 0.03307360783219338 -0.0004659275873564184
v -0.3099302649497986 0.6543638706207275 0.07719535380601883
vt 0 0
vt 0 1
vt 1 0
vt 1 1
vn 0 -0.1240347325801849 0.9922778606414795
vn 0 -0.1240347325801849 0.9922778606414795
vn 0 -0.1240347325801849 0.9922778606414795
vn 0 -0.1240347325801849 0.9922778606414795
f 38/38/38 37/37/37 35/35/35 36/36/36
g object_9
v 0.316195011138916 0.03307360783219338 -0.0004659275873564184
v 0.316195011138916 0.6543638706207275 0.07719535380601883
v -0.3099302649497986 0.03307360783219338 -0.0004659275873564184
v -0.3099302649497986 0.6543638706207275 0.07719535380601883
vt 0 0
vt 0 1
vt 1 0
vt 1 1
vn 0 -0.1240347325801849 0.9922778606414795
vn 0 -0.1240347325801849 0.9922778606414795
vn 0 -0.1240347325801849 0.9922778606414795
vn 0 -0.1240347325801849 0.9922778606414795
f 42/42/42 41/41/41 39/39/39 40/40/40
g object_10
v 0.316195011138916 0.0009938135044649243 0.02180661633610725
v 0.316195011138916 -0.6188386082649231 0.1103541031479836
v -0.3099302649497986 0.0009938135044649243 0.02180661633610725
v -0.3099302649497986 -0.6188386082649231 0.1103541031479836
vt 0 0
vt 0 1
vt 1 0
vt 1 1
vn 0 0.1414213627576828 0.9899494647979736
vn 0 0.1414213627576828 0.9899494647979736
vn 0 0.1414213627576828 0.9899494647979736
vn 0 0.1414213627576828 0.9899494647979736
f 46/46/46 44/44/44 43/43/43 45/45/45
g object_11
v 0.0208099540323019 0.3486077189445496 0.04036707058548927
v 0.641445517539978 0.3771226108074188 0.118028350174427
v 0.04954677447676659 -0.2768577635288239 0.04036707058548927
v 0.6701823472976685 -0.2483428567647934 0.118028350174427
vt 0 0
vt 0 1
vt 1 0
vt 1 1
vn -0.1239040270447731 -0.005692732520401478 0.9922778606414795
vn -0.1239040270447731 -0.005692732520401478 0.9922778606414795
vn -0.1239040270447731 -0.005692732520401478 0.9922778606414795
vn -0.1239040270447731 -0.005692732520401478 0.9922778606414795
f 50/50/50 48/48/48 47/47/47 49/49/49
g object_12
v -0.01123603712767363 0.3471353650093079 0.06263961642980576
v -0.6304152607917786 0.3186873495578766 0.1511870920658112
v 0.01750078238546848 -0.2783301174640656 0.06263961642980576
v -0.6016784310340881 -0.3067781031131744 0.1511870920658112
vt 0 0
vt 0 1
vt 1 0
vt 1 1
vn 0.1412723213434219 0.00649071391671896 0.9899494647979736
vn 0.1412723213434219 0.00649071391671896 0.9899494647979736
vn 0.1412723213434219 0.00649071391671896 0.9899494647979736
vn 0.1412723213434219 0.00649071391671896 0.9899494647979736
f 54/54/54 53/53/53 51/51/51 52/52/52
