# Rhino

g object_1
v 1.875736236572266 3.004888534545898 0.1181076318025589
v 1.232865691184998 -0.5365495681762695 0.440824568271637
v 0.05005460977554321 -0.6170520782470703 0.1646104454994202
v 0.4565116465091705 2.971029281616211 -0.420382022857666
v 1.641097903251648 7.417865753173828 -1.326972126960754
v 3.088186979293823 7.26652717590332 -0.6559185385704041
v 3.222246170043945 9.165721893310547 -2.239326477050781
v 1.288310647010803 7.647548675537109 -2.538374423980713
v 1.848596692085266 8.364067077636719 -2.661653995513916
v -0.07266157865524292 3.017698287963867 -1.687082409858704
v -0.1803136467933655 -0.6421394348144531 -0.8353883624076843
v 0.01406818628311157 -1.826313018798828 0.3968541026115418
v 0.1704552173614502 -1.053689002990723 -0.7313563227653503
v 0.02892130613327026 -0.8574466705322266 0.2649132311344147
v 1.018230199813843 -0.9261207580566406 0.9696089029312134
v 2.493120193481445 1.866262435913086 0.6312406063079834
v 1.393462538719177 1.957079887390137 -0.4076984524726868
v 4.801931381225586 5.071939468383789 0.04441854357719421
v 3.764907360076904 5.29425048828125 -1.141271948814392
v 5.903560638427734 6.30348014831543 -1.500621199607849
v 3.926879167556763 5.286577224731445 -2.398542881011963
v 4.63499927520752 5.768251419067383 -2.352230072021484
v 1.375313639640808 1.813357353210449 -1.768613696098328
v 1.412431001663208 2.170896530151367 2.32353687286377
v 0.2368831634521484 -1.07380485534668 1.251536726951599
v -0.06931942701339722 -0.8740015029907227 0.09044422209262848
v 1.237037777900696 2.45896053314209 0.8431408405303955
v 3.363074541091919 5.943393707275391 3.804758071899414
v 3.322688102722168 6.409524917602539 2.272319316864014
v 5.133399963378906 7.65186882019043 3.523450374603272
v 4.263250350952148 6.647165298461914 1.433523535728455
v 4.746249198913574 7.1932373046875 1.991233944892883
v 2.115200042724609 2.56022834777832 -0.2081951200962067
v 0.6980748176574707 -0.9005193710327148 -0.5908041000366211
v -1.404618859291077 2.780196189880371 1.733587980270386
v -0.8824255466461182 -0.6832942962646484 0.8443474769592285
v -0.08345663547515869 -0.6040363311767578 -0.07062992453575134
v -0.2736542820930481 2.958858489990234 0.7364353537559509
v -0.6644136905670166 7.31849479675293 2.421757221221924
v -1.897725343704224 6.939916610717773 3.371968746185303
v -0.8457016944885254 8.96727180480957 4.328616142272949
v 0.5260363817214966 7.710416793823242 2.693674087524414
v 0.2727199196815491 8.369882583618164 3.27971887588501
v 1.072836637496948 3.195022583007813 0.8703035116195679
v 0.9019887447357178 -0.4994230270385742 0.1970444917678833
v -2.709674596786499 2.440559387207031 -0.298250138759613
v -1.166422128677368 -0.8078031539916992 -0.6528108716011047
v 0.0002449750900268555 -0.5762109756469727 -0.3938327133655548
v -1.323090076446533 2.778461456298828 0.2199375629425049
v -3.61734938621521 6.757137298583984 1.171775460243225
v -4.984332084655762 6.233547210693359 0.5202394127845764
v -5.587051391601563 8.02723503112793 2.11758279800415
v -3.318570375442505 7.068191528320313 2.37953519821167
v -4.045058250427246 7.612522125244141 2.515318393707275
v -0.8053117990493774 2.958986282348633 1.479321837425232
v 0.2444120049476624 -0.5425710678100586 0.6026346683502197
v -1.53138279914856 2.771857261657715 -1.702410101890564
v -0.7188458442687988 -0.6863574981689453 -1.039302110671997
v -0.7357375621795654 2.955989837646484 -0.4224260747432709
v 0.05117881298065186 -0.6019229888916016 -0.1002870798110962
v -3.091934680938721 6.921598434448242 -2.460751056671143
v -2.360733270645142 7.305280685424805 -1.087647438049316
v -4.221804618835449 8.942237854003906 -1.581829905509949
v -2.827877759933472 7.694698333740234 0.04144027829170227
v -3.368190765380859 8.350666046142578 -0.3053858578205109
v -1.091512322425842 3.190414428710938 0.8834073543548584
v -0.3761415481567383 -0.4996376037597656 0.8274152874946594
v 0.2581564486026764 -1.037285804748535 0.02163976430892944
v -0.7150552272796631 0.04214096069335938 0.0431092381477356
v 0.3082383275032044 0.01488971710205078 -0.03320793807506561
v 0.7576920986175537 -0.2143030166625977 -1.141034245491028
v 0.6423844695091248 3.032808303833008 -2.722853660583496
v -0.09968626499176025 3.366544723510742 -1.440954208374023
v -0.6846747398376465 7.340724945068359 -3.862344264984131
v 0.1868396401405335 6.822128295898438 -5.102828025817871
v -1.300312042236328 8.606204986572266 -5.961624145507813
v -1.927111625671387 7.644033432006836 -3.767145156860352
v -1.944521188735962 8.187995910644531 -4.506284236907959
v -1.428370714187622 3.538854598999023 -1.13823413848877
vt 0.610966682434082 -3.989432573318481
vt 0.8651396036148071 -3.900551080703735
vt 0.9281145334243774 -3.153975486755371
vt 0.6132050156593323 -3.378049373626709
vt 0.1461179554462433 -3.361054658889771
vt 0.1435275375843048 -4.007908821105957
vt -0.06147637963294983 -3.353501558303833
vt 0.1289333552122116 -3.023015975952148
vt 0.04190194606781006 -3.060121774673462
vt 0.6436774134635925 -2.999705076217651
vt 0.9217231273651123 -2.886107921600342
vt 1.039257526397705 -3.158019542694092
vt 0.9460810422897339 -2.886994361877441
vt 0.9281145334243774 -3.153975486755371
vt 0.892308235168457 -3.90153956413269
vt 0.610966682434082 -3.989432573318481
vt 0.6132050156593323 -3.378049373626709
vt 0.1435275375843048 -4.007908821105957
vt 0.1461179554462433 -3.361054658889771
vt -0.06147637963294983 -3.353501558303833
vt 0.1289333552122116 -3.023015975952148
vt 0.04190194606781006 -3.060121774673462
vt 0.6436774134635925 -2.999705076217651
vt 0.610966682434082 -3.989432573318481
vt 0.8651396036148071 -3.900551080703735
vt 0.9281145334243774 -3.153975486755371
vt 0.6132050156593323 -3.378049373626709
vt 0.1435275375843048 -4.007908821105957
vt 0.1461179554462433 -3.361054658889771
vt -0.06147637963294983 -3.353501558303833
vt 0.1289333552122116 -3.023015975952148
vt 0.04190194606781006 -3.060121774673462
vt 0.6436774134635925 -2.999705076217651
vt 0.9217231273651123 -2.886107921600342
vt 0.610966682434082 -3.989432573318481
vt 0.8651396036148071 -3.900551080703735
vt 0.9281145334243774 -3.153975486755371
vt 0.6132050156593323 -3.378049373626709
vt 0.1461179554462433 -3.361054658889771
vt 0.1435275375843048 -4.007908821105957
vt -0.06147637963294983 -3.353501558303833
vt 0.1289333552122116 -3.023015975952148
vt 0.04190194606781006 -3.060121774673462
vt 0.6436774134635925 -2.999705076217651
vt 0.9217231273651123 -2.886107921600342
vt 0.610966682434082 -3.989432573318481
vt 0.892308235168457 -3.90153956413269
vt 0.9908829927444458 -3.156259298324585
vt 0.6132050156593323 -3.378049373626709
vt 0.1461179554462433 -3.361054658889771
vt 0.1435275375843048 -4.007908821105957
vt -0.06147637963294983 -3.353501558303833
vt 0.1289333552122116 -3.023015975952148
vt 0.04190194606781006 -3.060121774673462
vt 0.6436774134635925 -2.999705076217651
vt 0.9460810422897339 -2.886994361877441
vt 0.610966682434082 -3.989432573318481
vt 0.8651396036148071 -3.900551080703735
vt 0.6132050156593323 -3.378049373626709
vt 0.9281145334243774 -3.153975486755371
vt 0.1435275375843048 -4.007908821105957
vt 0.1461179554462433 -3.361054658889771
vt -0.06147637963294983 -3.353501558303833
vt 0.1289333552122116 -3.023015975952148
vt 0.04190194606781006 -3.060121774673462
vt 0.6436774134635925 -2.999705076217651
vt 0.9217231273651123 -2.886107921600342
vt 1.032548308372498 -3.157775402069092
vt 0.9460810422897339 -2.886994361877441
vt 0.9281145334243774 -3.153975486755371
vt 0.892308235168457 -3.90153956413269
vt 0.610966682434082 -3.989432573318481
vt 0.6132050156593323 -3.378049373626709
vt 0.1461179554462433 -3.361054658889771
vt 0.1435275375843048 -4.007908821105957
vt -0.06147637963294983 -3.353501558303833
vt 0.1289333552122116 -3.023015975952148
vt 0.04190194606781006 -3.060121774673462
vt 0.6436774134635925 -2.999705076217651
vn -0.3299637138843536 0.2168341130018234 0.918752908706665
vn -0.233865961432457 0.1302535086870194 0.9635043740272522
vn -0.5851660370826721 0.1752547919750214 0.7917490005493164
vn -0.788048267364502 0.2457029223442078 0.5644554495811462
vn -0.5710090398788452 0.5071297287940979 0.6455758213996887
vn -0.3341715931892395 0.457793653011322 0.8238654732704163
vn -0.42091104388237 0.6888396739959717 0.5901981592178345
vn -0.8391856551170349 0.4207592606544495 0.3445709347724915
vn -0.6373360753059387 0.6719196438789368 0.3772620558738709
vn -0.8968024849891663 0.2218019068241119 0.3828175365924835
vn -0.9436353445053101 0.1314253509044647 0.3037757873535156
vn -0.9162180423736572 0.06782348453998566 0.3948980867862701
vn -0.9574981331825256 0.2592627704143524 -0.1264125853776932
vn -0.8391531705856323 0.3096032440662384 0.4471776187419891
vn -0.5509126782417297 0.2462315112352371 0.7974116206169128
vn -0.5617926120758057 0.4481263160705566 0.6953933238983154
vn -0.8105738162994385 0.5350204706192017 0.2381662875413895
vn -0.4982080161571503 0.6491026878356934 0.5748516917228699
vn -0.5800718665122986 0.7904694676399231 0.1966585665941238
vn -0.3781352937221527 0.8908981680870056 0.2516230940818787
vn -0.7404797077178955 0.6672714352607727 -0.08024095743894577
vn -0.4906458556652069 0.8712832927703857 -0.01149329822510481
vn -0.8733665347099304 0.4854494035243988 -0.03961993753910065
vn -0.9222832918167114 0.321200430393219 0.2149971872568131
vn -0.9272873997688294 0.2414342314004898 0.2860901951789856
vn -0.9008816480636597 0.3686344921588898 -0.2291742265224457
vn -0.8564016222953796 0.475477397441864 -0.201239824295044
vn -0.8323602676391602 0.5193812847137451 0.1934410780668259
vn -0.6854044198989868 0.7149035930633545 -0.138324573636055
vn -0.5898469686508179 0.805735170841217 0.05358568578958511
vn -0.6093258261680603 0.635932207107544 -0.4736161530017853
vn -0.5040318369865418 0.8305075168609619 -0.2370847165584564
vn -0.6741631031036377 0.4348027408123016 -0.5970349311828613
vn -0.619695246219635 0.3323613405227661 -0.7109948992729187
vn -0.6833749413490295 0.1549984067678452 -0.7134242653846741
vn -0.7544580101966858 0.05418981239199638 -0.6541074514389038
vn -0.3161697387695313 0.1610191464424133 -0.9349382519721985
vn -0.3368977010250092 0.2525359094142914 -0.9070422053337097
vn -0.3179401159286499 0.4848287999629974 -0.8147730231285095
vn -0.6329312324523926 0.4035182595252991 -0.6607352495193481
vn -0.4214843809604645 0.6657590866088867 -0.6157237887382507
vn 0.02106416784226894 0.5259345769882202 -0.8502641320228577
vn -0.1327891349792481 0.6949988603591919 -0.7066425085067749
vn 0.1041988730430603 0.2850325405597687 -0.952837347984314
vn 0.2424622029066086 0.1630697697401047 -0.9563578367233276
vn 0.247529000043869 0.2980433106422424 -0.9218999743461609
vn 0.1767992973327637 0.189417839050293 -0.9658482670783997
vn 0.6181741952896118 0.3377293646335602 -0.7097883820533752
vn 0.5701971650123596 0.4228836297988892 -0.7043043375015259
vn 0.4655741155147553 0.6336314082145691 -0.6178607940673828
vn 0.1899104565382004 0.5314440131187439 -0.8255308866500855
vn 0.216651201248169 0.7765567302703857 -0.5916264653205872
vn 0.6578739881515503 0.6738724112510681 -0.3363001644611359
vn 0.4331807494163513 0.8164092302322388 -0.3818774819374085
vn 0.8232533931732178 0.454552561044693 -0.3400526344776154
vn 0.9133008718490601 0.3326379954814911 -0.2350181043148041
vn 0.8294745087623596 0.1519822925329208 -0.5374694466590881
vn 0.8030529618263245 0.1031257286667824 -0.5869165658950806
vn 0.9183284044265747 0.2237893790006638 -0.3264832198619843
vn 0.9814907312393189 0.1913331001996994 -0.008219986222684383
vn 0.7771103978157044 0.3461334109306335 -0.5256340503692627
vn 0.840901792049408 0.529596209526062 -0.1114094331860542
vn 0.6726658344268799 0.6698715686798096 -0.3143130838871002
vn 0.8318096399307251 0.5312181115150452 0.1609348654747009
vn 0.7144983410835266 0.6994852423667908 -0.01457939017564058
vn 0.9207603335380554 0.2909070551395416 0.2599490284919739
vn 0.9021740555763245 0.1688765734434128 0.3969416618347168
vn 0.5878755450248718 0.01418052054941654 0.8088271021842957
vn 0.07808488607406616 0.192954808473587 0.9780957102775574
vn 0.5234328508377075 0.2339557856321335 0.8193184733390808
vn 0.9103695750236511 0.1566849648952484 0.3829843997955322
vn 0.8469173312187195 0.3257987797260284 0.4202215373516083
vn 0.6082127094268799 0.4263216853141785 0.6695723533630371
vn 0.5699468851089478 0.6444483995437622 0.5097516775131226
vn 0.7795091867446899 0.5364621877670288 0.3233786523342133
vn 0.5428698062896729 0.7800904512405396 0.3110485672950745
vn 0.2302669137716293 0.628575325012207 0.7428796887397766
vn 0.3000113666057587 0.8184871673583984 0.4899713695049286
vn 0.1965423077344894 0.4296364784240723 0.8813533186912537
f 3/3/3 2/2/2 1/1/1
f 4/4/4 3/3/3 1/1/1
f 11/11/11 3/3/3 4/4/4
f 4/4/4 1/1/1 5/5/5
f 4/4/4 5/5/5 8/8/8
f 10/10/10 4/4/4 8/8/8
f 10/10/10 11/11/11 4/4/4
f 1/1/1 6/6/6 5/5/5
f 6/6/6 7/7/7 5/5/5
f 5/5/5 9/9/9 8/8/8
f 7/7/7 9/9/9 5/5/5
f 14/14/14 12/12/12 15/15/15
f 14/14/14 15/15/15 16/16/16
f 14/14/14 13/13/13 12/12/12
f 17/17/17 14/14/14 16/16/16
f 13/13/13 14/14/14 17/17/17
f 17/17/17 16/16/16 18/18/18
f 23/23/23 13/13/13 17/17/17
f 19/19/19 17/17/17 18/18/18
f 17/17/17 19/19/19 21/21/21
f 23/23/23 17/17/17 21/21/21
f 18/18/18 20/20/20 19/19/19
f 19/19/19 22/22/22 21/21/21
f 20/20/20 22/22/22 19/19/19
f 27/27/27 24/24/24 28/28/28
f 29/29/29 27/27/27 28/28/28
f 28/28/28 30/30/30 29/29/29
f 26/26/26 25/25/25 24/24/24
f 27/27/27 26/26/26 24/24/24
f 30/30/30 32/32/32 29/29/29
f 29/29/29 32/32/32 31/31/31
f 27/27/27 29/29/29 31/31/31
f 33/33/33 27/27/27 31/31/31
f 27/27/27 33/33/33 26/26/26
f 33/33/33 34/34/34 26/26/26
f 40/40/40 41/41/41 39/39/39
f 41/41/41 43/43/43 39/39/39
f 35/35/35 40/40/40 39/39/39
f 39/39/39 43/43/43 42/42/42
f 38/38/38 35/35/35 39/39/39
f 44/44/44 38/38/38 39/39/39
f 42/42/42 44/44/44 39/39/39
f 37/37/37 36/36/36 35/35/35
f 38/38/38 37/37/37 35/35/35
f 38/38/38 44/44/44 37/37/37
f 44/44/44 45/45/45 37/37/37
f 51/51/51 52/52/52 50/50/50
f 52/52/52 54/54/54 50/50/50
f 50/50/50 54/54/54 53/53/53
f 53/53/53 55/55/55 50/50/50
f 46/46/46 51/51/51 50/50/50
f 49/49/49 46/46/46 50/50/50
f 55/55/55 49/49/49 50/50/50
f 55/55/55 56/56/56 48/48/48
f 49/49/49 55/55/55 48/48/48
f 48/48/48 47/47/47 46/46/46
f 49/49/49 48/48/48 46/46/46
f 66/66/66 59/59/59 62/62/62
f 64/64/64 66/66/66 62/62/62
f 66/66/66 67/67/67 60/60/60
f 59/59/59 66/66/66 60/60/60
f 62/62/62 65/65/65 64/64/64
f 63/63/63 65/65/65 62/62/62
f 61/61/61 63/63/63 62/62/62
f 62/62/62 59/59/59 61/61/61
f 59/59/59 58/58/58 57/57/57
f 60/60/60 58/58/58 59/59/59
f 59/59/59 57/57/57 61/61/61
f 70/70/70 69/69/69 68/68/68
f 79/79/79 69/69/69 70/70/70
f 70/70/70 68/68/68 71/71/71
f 70/70/70 71/71/71 73/73/73
f 73/73/73 79/79/79 70/70/70
f 79/79/79 73/73/73 77/77/77
f 73/73/73 71/71/71 72/72/72
f 73/73/73 72/72/72 74/74/74
f 73/73/73 74/74/74 77/77/77
f 74/74/74 78/78/78 77/77/77
f 72/72/72 75/75/75 74/74/74
f 75/75/75 76/76/76 74/74/74
f 76/76/76 78/78/78 74/74/74
